<?xml version="1.0" standalone="no"?>
<!DOCTYPE svg PUBLIC "-//W3C//DTD SVG 20010904//EN"
 "http://www.w3.org/TR/2001/REC-SVG-20010904/DTD/svg10.dtd">
<svg version="1.0" xmlns="http://www.w3.org/2000/svg"
 width="664.000000pt" height="664.000000pt" viewBox="0 0 664.000000 664.000000"
 preserveAspectRatio="xMidYMid meet">
<metadata>
Created by potrace 1.11, written by Peter Selinger 2001-2013
</metadata>
<g transform="translate(0.000000,664.000000) scale(0.100000,-0.100000)"
fill="#000000" stroke="none">
<path d="M3030 5129 c-841 -87 -1778 -604 -2555 -1411 -193 -201 -435 -489
-435 -518 0 -19 238 -268 375 -393 757 -692 1633 -1144 2445 -1261 816 -118
1669 94 2510 622 385 242 783 565 1041 845 62 67 126 136 143 154 l29 32 -74
97 c-113 149 -242 294 -403 456 -809 814 -1683 1289 -2536 1378 -113 12 -421
11 -540 -1z m562 -585 c524 -67 1120 -355 1673 -807 137 -112 352 -308 470
-426 l80 -81 -54 -48 c-649 -568 -1361 -940 -2013 -1051 -765 -130 -1555 89
-2388 663 -190 131 -540 412 -540 434 0 15 316 322 439 427 596 508 1200 812
1767 889 140 19 416 19 566 0z"/>
<path d="M3141 4185 c-202 -46 -345 -126 -477 -268 -232 -248 -295 -612 -162
-927 39 -93 66 -137 133 -220 91 -112 226 -208 366 -260 183 -67 426 -67 608
0 270 101 484 347 547 632 24 105 22 291 -4 388 -32 118 -59 183 -113 265
-120 184 -288 310 -494 370 -113 34 -304 43 -404 20z"/>
</g>
</svg>
